<svg width="60" height="36" fill="none" xmlns="http://www.w3.org/2000/svg"><path fill-rule="evenodd" clip-rule="evenodd" d="M57.431 31.892h-3.116a.355.355 0 0 1-.29-.145.38.38 0 0 1-.086-.346c.097-.327.154-.673.173-1.039a4.3 4.3 0 0 0-1.096-3.001 4.254 4.254 0 0 0-2.944-1.501 4.336 4.336 0 0 0-4.416 2.828 4.08 4.08 0 0 0-.288 1.53c0 .423.048.817.144 1.183a.307.307 0 0 1-.057.346.355.355 0 0 1-.29.145H17.808a.463.463 0 0 1-.318-.145c-.058-.086-.086-.23-.058-.346a3.91 3.91 0 0 0 .174-1.183c0-.231-.02-.462-.058-.693-.346-2.107-2.136-3.665-4.271-3.665h-.058a4.38 4.38 0 0 0-4.07 2.8 8.076 8.076 0 0 0-.201.634c-.145.664-.116 1.328.028 1.992a.38.38 0 0 1-.086.346c-.087.086-.202.144-.318.115a16.446 16.446 0 0 1-2.972-.606l-3.406-.98A3.03 3.03 0 0 1 0 27.244v-.26c0-1.558.23-3.145.693-4.646.173-.577.375-1.183.635-1.79.154-.346.355-.654.606-.923.086-.115.23-.23.404-.346a3.09 3.09 0 0 1 1.5-.577l1.645-.174a10.68 10.68 0 0 0 3.954-1.212l4.3-2.28c1.934-1.039 4.04-1.616 6.205-1.789 2.627-.173 6.436-.375 9.64-.144a20.8 20.8 0 0 1 5.079.981c2.049.693 4.011 1.5 5.887 2.453a43.58 43.58 0 0 1 5.484 3.261c.308.212.635.356.981.433l9.986 2.165a2.841 2.841 0 0 1 1.99 1.587c.193.462.357.923.492 1.385.019 0 .028.02.028.058l.03.058c.076.288.143.567.201.837.116.5.193 1 .231 1.5.02.328.029.635.029.924v.577c0 .52-.144 1.01-.433 1.443a2.579 2.579 0 0 1-2.136 1.126Zm-2.626-.75h2.626c.607 0 1.155-.318 1.501-.809.202-.288.289-.664.289-1.01v-.577c0-.27-.01-.558-.03-.866a12.513 12.513 0 0 0-.201-1.414c-.058-.25-.125-.5-.202-.75v-.058l-.029-.058a10.584 10.584 0 0 0-.49-1.299c-.26-.577-.809-1.01-1.444-1.154l-9.985-2.164a3.41 3.41 0 0 1-1.241-.549 45.819 45.819 0 0 0-5.397-3.203 44.157 44.157 0 0 0-5.772-2.396 19.516 19.516 0 0 0-4.877-.98c-3.175-.203-6.956-.03-9.553.172-2.078.145-4.04.722-5.887 1.703l-4.33 2.28a11.5 11.5 0 0 1-4.213 1.27l-1.645.173a2.551 2.551 0 0 0-1.126.433c-.134.096-.24.192-.317.288a1.889 1.889 0 0 0-.433.664c-.25.578-.452 1.155-.606 1.732a16.424 16.424 0 0 0-.693 4.444v.231a2.26 2.26 0 0 0 1.645 2.165l3.435 1.01c.73.211 1.5.375 2.309.49a5.43 5.43 0 0 1 .057-1.76c.058-.27.135-.52.231-.75a5.151 5.151 0 0 1 4.79-3.32h.059c2.51.03 4.646 1.848 5.021 4.33.058.27.087.538.087.808 0 .308-.029.616-.087.923h26.378a5.003 5.003 0 0 1-.086-.923c0-.635.115-1.241.346-1.818a5.14 5.14 0 0 1 5.166-3.32 5.257 5.257 0 0 1 3.52 1.761c.838 1.01 1.3 2.251 1.27 3.55-.018.25-.047.5-.086.75Z" fill="#00082B"/><path d="M4.502 19.915a2.54 2.54 0 0 1-.75 1.79 2.55 2.55 0 0 1-1.819.75h-.866c.174-.597.376-1.184.606-1.761.135-.308.308-.568.52-.78h2.309Z" fill="#FF4D4D"/><path fill-rule="evenodd" clip-rule="evenodd" d="M1.934 22.714h-.866a.243.243 0 0 1-.202-.115.224.224 0 0 1-.058-.231c.173-.577.385-1.174.635-1.79a3.4 3.4 0 0 1 .577-.865.31.31 0 0 1 .173-.058h2.31c.144 0 .259.115.259.26 0 .721-.317 1.443-.837 1.962a2.726 2.726 0 0 1-1.991.837Zm-.52-.52h.52a2.27 2.27 0 0 0 1.616-.663c.375-.375.606-.866.664-1.385H2.309a2.632 2.632 0 0 0-.375.634c-.212.482-.385.953-.52 1.415Z" fill="#00082B"/><path d="M59.134 25.456h-1.212a3.153 3.153 0 0 1-3.146-3.146l2.136.462a2.54 2.54 0 0 1 1.732 1.385c.192.424.356.856.49 1.299Z" fill="#FFCF0D"/><path fill-rule="evenodd" clip-rule="evenodd" d="M59.134 25.716h-1.212a3.412 3.412 0 0 1-3.405-3.406c0-.086.028-.144.086-.202.058-.058.145-.058.202-.058l2.165.462c.837.173 1.53.75 1.904 1.53.193.442.356.894.491 1.356.029.058.029.145-.029.231a.262.262 0 0 1-.202.087Zm-4.098-3.088a2.905 2.905 0 0 0 2.886 2.568h.866c-.116-.308-.24-.616-.375-.923a2.2 2.2 0 0 0-1.559-1.241l-1.818-.404Z" fill="#00082B"/><path d="M59.624 28.746v.577c0 .462-.144.866-.375 1.212l-.721-.202a1.303 1.303 0 0 1-.635-.461 1.186 1.186 0 0 1-.26-.75c0-.694.577-1.27 1.27-1.27h.692c.02.288.03.586.03.894Z" fill="#FFCF0D"/><path fill-rule="evenodd" clip-rule="evenodd" d="M59.249 30.795h-.087l-.721-.23c-.318-.088-.577-.29-.78-.55a1.649 1.649 0 0 1-.288-.894c0-.837.693-1.53 1.53-1.53h.692c.116 0 .231.116.231.231.039.308.058.616.058.924v.577a2.3 2.3 0 0 1-.433 1.357c-.058.086-.115.115-.202.115Zm-.346-2.684c-.549 0-1.01.462-1.01 1.01 0 .202.057.433.201.606.116.145.29.289.491.346l.548.174c.145-.289.231-.606.231-.924v-.577c0-.212-.01-.423-.028-.635h-.433Z" fill="#00082B"/><path d="M54.488 30.218c0 .462-.058.894-.173 1.298a4.744 4.744 0 0 1-4.56 3.464 4.755 4.755 0 0 1-4.59-3.464 4.08 4.08 0 0 1-.201-1.298c0-2.627 2.136-4.762 4.79-4.762 2.627 0 4.734 2.136 4.734 4.762Z" fill="#353D4A"/><path fill-rule="evenodd" clip-rule="evenodd" d="M49.755 35.384c-2.309 0-4.358-1.559-4.964-3.752a5.024 5.024 0 0 1-.202-1.414c0-2.828 2.309-5.137 5.166-5.137a5.148 5.148 0 0 1 5.137 5.137c0 .48-.067.952-.202 1.414-.606 2.193-2.655 3.752-4.935 3.752Zm0-9.524c-2.424 0-4.387 1.962-4.387 4.358 0 .423.048.817.144 1.183.549 1.876 2.28 3.204 4.243 3.204 1.933 0 3.665-1.328 4.185-3.204a3.91 3.91 0 0 0 .173-1.183 4.373 4.373 0 0 0-4.358-4.358Z" fill="#00082B"/><path fill-rule="evenodd" clip-rule="evenodd" d="M49.755 33.046c-1.01 0-1.963-.52-2.454-1.414a2.765 2.765 0 0 1-.404-1.414c0-1.559 1.27-2.828 2.858-2.828a2.833 2.833 0 0 1 2.828 2.828c0 .49-.144.981-.404 1.414-.49.895-1.443 1.414-2.424 1.414Zm0-5.137c-1.3 0-2.338 1.039-2.338 2.309 0 .404.115.808.317 1.183a2.364 2.364 0 0 0 2.02 1.154c.809 0 1.588-.461 1.992-1.154.202-.375.317-.78.317-1.183a2.316 2.316 0 0 0-2.308-2.309Z" fill="#00082B"/><path d="M52.323 30.218c0 .49-.144.923-.346 1.299-.462.779-1.299 1.298-2.222 1.298a2.62 2.62 0 0 1-2.252-1.298 2.717 2.717 0 0 1-.346-1.3c0-1.413 1.155-2.568 2.598-2.568a2.574 2.574 0 0 1 2.568 2.569Z" fill="#CBD7E3"/><path fill-rule="evenodd" clip-rule="evenodd" d="M49.755 33.046c-1.01 0-1.963-.52-2.454-1.414a2.765 2.765 0 0 1-.404-1.414c0-1.559 1.27-2.828 2.858-2.828a2.833 2.833 0 0 1 2.828 2.828c0 .49-.144.981-.404 1.414-.49.895-1.443 1.414-2.424 1.414Zm0-5.137c-1.3 0-2.338 1.039-2.338 2.309 0 .404.115.808.317 1.183a2.364 2.364 0 0 0 2.02 1.154c.809 0 1.588-.461 1.992-1.154.202-.375.317-.78.317-1.183a2.316 2.316 0 0 0-2.308-2.309Z" fill="#00082B"/><path d="M17.98 30.218c0 .462-.058.894-.174 1.298-.548 1.992-2.395 3.464-4.589 3.464A4.765 4.765 0 0 1 8.6 31.372a4.518 4.518 0 0 1-.144-1.154 4.767 4.767 0 0 1 4.761-4.762 4.767 4.767 0 0 1 4.762 4.762Z" fill="#353D4A"/><path fill-rule="evenodd" clip-rule="evenodd" d="M13.218 35.384a5.15 5.15 0 0 1-4.993-3.925 5.34 5.34 0 0 1-.144-1.241 5.148 5.148 0 0 1 5.137-5.137c2.857 0 5.166 2.309 5.166 5.137 0 .48-.068.952-.202 1.414-.606 2.193-2.655 3.752-4.964 3.752Zm0-9.524a4.373 4.373 0 0 0-4.358 4.358c0 .365.038.721.115 1.068a4.378 4.378 0 0 0 4.243 3.319A4.39 4.39 0 0 0 17.43 31.4a3.91 3.91 0 0 0 .173-1.183c0-2.396-1.962-4.358-4.386-4.358Z" fill="#00082B"/><path fill-rule="evenodd" clip-rule="evenodd" d="M13.218 33.046c-.981 0-1.934-.52-2.453-1.414a3.044 3.044 0 0 1-.375-1.414 2.833 2.833 0 0 1 2.828-2.828 2.833 2.833 0 0 1 2.828 2.828c0 .49-.115.981-.375 1.414-.49.895-1.443 1.414-2.453 1.414Zm0-5.137a2.316 2.316 0 0 0-2.309 2.309c0 .404.116.808.318 1.183a2.353 2.353 0 0 0 1.99 1.154c.838 0 1.617-.461 2.021-1.154a2.51 2.51 0 0 0 .318-1.183c0-1.27-1.04-2.309-2.338-2.309Z" fill="#00082B"/><path d="M15.815 30.218c0 .49-.144.923-.346 1.299a2.619 2.619 0 0 1-2.252 1.298c-.952 0-1.76-.52-2.222-1.298a2.717 2.717 0 0 1-.346-1.3 2.574 2.574 0 0 1 2.568-2.568c1.443 0 2.598 1.155 2.598 2.569Z" fill="#CBD7E3"/><path fill-rule="evenodd" clip-rule="evenodd" d="M13.218 33.046c-.981 0-1.934-.52-2.453-1.414a3.044 3.044 0 0 1-.375-1.414 2.833 2.833 0 0 1 2.828-2.828 2.833 2.833 0 0 1 2.828 2.828c0 .49-.115.981-.375 1.414-.49.895-1.443 1.414-2.453 1.414Zm0-5.137a2.316 2.316 0 0 0-2.309 2.309c0 .404.116.808.318 1.183a2.353 2.353 0 0 0 1.99 1.154c.838 0 1.617-.461 2.021-1.154a2.51 2.51 0 0 0 .318-1.183c0-1.27-1.04-2.309-2.338-2.309Z" fill="#00082B"/><path d="M54.776 22.57h-.029L4.473 20.146c-.144 0-.26-.116-.23-.26 0-.144.115-.26.259-.231l50.274 2.395c.144 0 .26.116.231.26 0 .144-.115.26-.23.26Z" fill="#00082B"/><path d="m27.1 20.983-11.112-.52v-.173c-.548-.952-.577-1.876-.23-2.713.663-1.558 2.568-2.742 4.646-2.857h5.483c.52 0 .924.404.953.923l.144 3.146.115 2.194Z" fill="#2196FF"/><path fill-rule="evenodd" clip-rule="evenodd" d="m27.1 21.242-11.112-.52c-.115-.028-.23-.115-.23-.23l-.03-.116c-.52-.952-.606-1.962-.202-2.914.693-1.645 2.684-2.857 4.878-3.002h5.483c.635 0 1.183.52 1.212 1.155l.26 5.368c0 .057-.03.144-.087.173a.194.194 0 0 1-.173.086Zm-10.881-1.039 10.62.52-.26-5.08c0-.375-.317-.663-.692-.663h-5.455c-1.99.115-3.81 1.212-4.444 2.684-.317.808-.26 1.674.202 2.51.02 0 .029.01.029.03Z" fill="#00082B"/><path d="m45.223 21.848-15.41-.75-.434-2.366-.721-4.012s2.078 0 5.166.895a26.7 26.7 0 0 1 4.877 1.904c2.078 1.01 4.3 2.425 6.522 4.33Z" fill="#2196FF"/><path fill-rule="evenodd" clip-rule="evenodd" d="M45.223 22.108h-.029l-15.382-.75a.253.253 0 0 1-.26-.202l-1.154-6.407c0-.058.029-.145.058-.202a.262.262 0 0 1 .202-.087c.086 0 2.135 0 5.252.895a28.4 28.4 0 0 1 4.906 1.933c2.338 1.155 4.531 2.627 6.58 4.358.058.087.087.202.058.289-.029.115-.144.173-.23.173Zm-15.209-1.24 14.459.692c-1.847-1.5-3.81-2.8-5.887-3.81a29.878 29.878 0 0 0-4.82-1.905c-2.367-.663-4.127-.836-4.79-.865l1.038 5.887Z" fill="#00082B"/><path d="m42.424 27.62-23.492-.779a.259.259 0 0 1-.26-.26.26.26 0 0 1 .26-.26l23.492.809c.145 0 .26.115.26.26 0 .144-.115.23-.26.23Z" fill="#00082B"/><path d="m26.84 15.643.144 3.146c-4.098-.029-7.937-.462-11.227-1.212.664-1.558 2.569-2.742 4.647-2.857h5.483c.52 0 .924.404.953.923Zm11.861 1.877c-2.77.634-5.916 1.067-9.322 1.212l-.721-4.012s2.078 0 5.166.895a26.701 26.701 0 0 1 4.877 1.904Z" fill="#fff" style="mix-blend-mode:overlay" opacity=".3"/><path d="M59.162 25.6a74.19 74.19 0 0 1-5.858 1.5c-2.54.578-5.224 1.04-8.023 1.444-5.657.808-11.775 1.24-18.182 1.24a135.9 135.9 0 0 1-9.178-.317 112.57 112.57 0 0 1-9.148-.952 96.99 96.99 0 0 1-8.398-1.53c0-1.53.23-3.059.692-4.53a14.76 14.76 0 0 1 .635-1.761c.116-.308.28-.568.49-.78.116-.134.241-.25.376-.346.375-.26.837-.433 1.327-.49l1.617-.173a11.267 11.267 0 0 0 4.098-1.241l4.3-2.28c1.876-1.01 3.954-1.588 6.06-1.76 2.655-.174 6.407-.347 9.61-.145 1.675.115 3.349.462 4.965.981a41.342 41.342 0 0 1 5.83 2.424 41.926 41.926 0 0 1 5.454 3.233c.327.23.693.394 1.097.49l7.85 1.703 2.135.462c.75.173 1.386.664 1.732 1.385.192.424.356.856.49 1.299 0 .058.01.106.03.144Z" fill="#fff" style="mix-blend-mode:overlay" opacity=".3"/></svg>